# Blender 4.0.2
# www.blender.org
mtllib Assiette1.mtl
o Assiette
v 0.000000 0.045112 -0.549662
v -0.107234 0.045112 -0.539101
v -0.210347 0.045112 -0.507822
v -0.305377 0.045112 -0.457028
v -0.388671 0.045112 -0.388670
v -0.457029 0.045112 -0.305376
v -0.507823 0.045112 -0.210346
v -0.539102 0.045112 -0.107233
v -0.549664 0.045112 0.000001
v -0.539102 0.045112 0.107235
v -0.507823 0.045112 0.210348
v -0.457029 0.045112 0.305378
v -0.388671 0.045112 0.388672
v -0.305377 0.045112 0.457030
v -0.210347 0.045112 0.507825
v -0.107234 0.045112 0.539104
v 0.000000 0.045112 0.549665
v 0.107234 0.045112 0.539104
v 0.210347 0.045112 0.507825
v 0.305377 0.045112 0.457030
v 0.388671 0.045112 0.388672
v 0.457029 0.045112 0.305378
v 0.507823 0.045112 0.210348
v 0.539102 0.045112 0.107235
v 0.549664 0.045112 0.000001
v 0.539102 0.045112 -0.107233
v 0.507823 0.045112 -0.210346
v 0.457029 0.045112 -0.305376
v 0.388671 0.045112 -0.388670
v 0.305377 0.045112 -0.457028
v 0.210347 0.045112 -0.507822
v 0.107234 0.045112 -0.539101
v -0.046038 -0.033541 -0.231445
v 0.000000 -0.033541 -0.235979
v -0.090306 -0.033541 -0.218017
v -0.131104 -0.033541 -0.196210
v -0.166864 -0.033541 -0.166862
v -0.196211 -0.033541 -0.131103
v -0.218018 -0.033541 -0.090305
v -0.231447 -0.033541 -0.046036
v -0.235981 -0.033541 0.000001
v -0.231447 -0.033541 0.046039
v -0.218018 -0.033541 0.090307
v -0.196211 -0.033541 0.131105
v -0.166864 -0.033541 0.166865
v -0.131104 -0.033541 0.196212
v -0.090306 -0.033541 0.218019
v -0.046038 -0.033541 0.231448
v 0.000000 -0.033541 0.235982
v 0.046038 -0.033541 0.231448
v 0.090306 -0.033541 0.218019
v 0.131104 -0.033541 0.196212
v 0.166864 -0.033541 0.166865
v 0.196211 -0.033541 0.131105
v 0.218018 -0.033541 0.090307
v 0.231447 -0.033541 0.046039
v 0.235981 -0.033541 0.000001
v 0.231447 -0.033541 -0.046036
v 0.218018 -0.033541 -0.090305
v 0.196211 -0.033541 -0.131103
v 0.166864 -0.033541 -0.166862
v 0.131104 -0.033541 -0.196210
v 0.090306 -0.033541 -0.218017
v 0.046038 -0.033541 -0.231445
v -0.077357 0.017854 -0.388896
v 0.000000 0.017854 -0.396515
v -0.151740 0.017854 -0.366332
v -0.220293 0.017854 -0.329690
v -0.280380 0.017854 -0.280378
v -0.329691 0.017854 -0.220292
v -0.366333 0.017854 -0.151739
v -0.388898 0.017854 -0.077355
v -0.396517 0.017854 0.000001
v -0.388898 0.017854 0.077358
v -0.366333 0.017854 0.151742
v -0.329691 0.017854 0.220294
v -0.280380 0.017854 0.280381
v -0.220293 0.017854 0.329693
v -0.151740 0.017854 0.366335
v -0.077357 0.017854 0.388899
v 0.000000 0.017854 0.396518
v 0.077357 0.017854 0.388899
v 0.151740 0.017854 0.366335
v 0.220293 0.017854 0.329693
v 0.280380 0.017854 0.280381
v 0.329691 0.017854 0.220294
v 0.366333 0.017854 0.151742
v 0.388898 0.017854 0.077358
v 0.396517 0.017854 0.000001
v 0.388898 0.017854 -0.077355
v 0.366333 0.017854 -0.151739
v 0.329691 0.017854 -0.220292
v 0.280380 0.017854 -0.280378
v 0.220293 0.017854 -0.329690
v 0.151740 0.017854 -0.366332
v 0.077357 0.017854 -0.388896
v 0.000000 0.025421 -0.553167
v -0.107918 0.025421 -0.542538
v -0.211688 0.025421 -0.511060
v -0.307324 0.025421 -0.459942
v -0.391149 0.025421 -0.391148
v -0.459943 0.025421 -0.307323
v -0.511061 0.025421 -0.211687
v -0.542539 0.025421 -0.107916
v -0.553168 0.025421 0.000001
v -0.542539 0.025421 0.107919
v -0.511061 0.025421 0.211690
v -0.459943 0.025421 0.307325
v -0.391149 0.025421 0.391151
v -0.307324 0.025421 0.459944
v -0.211688 0.025421 0.511062
v -0.107918 0.025421 0.542541
v 0.000000 0.025421 0.553170
v 0.107918 0.025421 0.542541
v 0.211688 0.025421 0.511062
v 0.307324 0.025421 0.459944
v 0.391149 0.025421 0.391151
v 0.459943 0.025421 0.307325
v 0.511061 0.025421 0.211690
v 0.542539 0.025421 0.107919
v 0.553168 0.025421 0.000001
v 0.542539 0.025421 -0.107916
v 0.511061 0.025421 -0.211687
v 0.459943 0.025421 -0.307323
v 0.391149 0.025421 -0.391148
v 0.307324 0.025421 -0.459942
v 0.211688 0.025421 -0.511060
v 0.107918 0.025421 -0.542538
v -0.046676 -0.053271 -0.234656
v 0.000000 -0.053271 -0.239253
v -0.091559 -0.053271 -0.221041
v -0.132923 -0.053271 -0.198932
v -0.169179 -0.053271 -0.169177
v -0.198933 -0.053271 -0.132921
v -0.221042 -0.053271 -0.091557
v -0.234657 -0.053271 -0.046675
v -0.239255 -0.053271 0.000001
v -0.234657 -0.053271 0.046677
v -0.221042 -0.053271 0.091560
v -0.198933 -0.053271 0.132924
v -0.169178 -0.053271 0.169180
v -0.132923 -0.053271 0.198934
v -0.091559 -0.053271 0.221044
v -0.046676 -0.053271 0.234659
v 0.000000 -0.053271 0.239256
v 0.046676 -0.053271 0.234659
v 0.091559 -0.053271 0.221044
v 0.132923 -0.053271 0.198934
v 0.169179 -0.053271 0.169180
v 0.198933 -0.053271 0.132924
v 0.221042 -0.053271 0.091560
v 0.234657 -0.053271 0.046677
v 0.239255 -0.053271 0.000001
v 0.234657 -0.053271 -0.046675
v 0.221042 -0.053271 -0.091557
v 0.198933 -0.053271 -0.132921
v 0.169178 -0.053271 -0.169177
v 0.132923 -0.053271 -0.198932
v 0.091559 -0.053271 -0.221041
v 0.046676 -0.053271 -0.234656
v -0.078280 -0.001578 -0.393539
v 0.000000 -0.001578 -0.401248
v -0.153552 -0.001578 -0.370705
v -0.222922 -0.001578 -0.333626
v -0.283726 -0.001578 -0.283725
v -0.333627 -0.001578 -0.222921
v -0.370706 -0.001578 -0.153550
v -0.393540 -0.001578 -0.078279
v -0.401250 -0.001578 0.000001
v -0.393540 -0.001578 0.078281
v -0.370706 -0.001578 0.153553
v -0.333627 -0.001578 0.222924
v -0.283726 -0.001578 0.283728
v -0.222922 -0.001578 0.333628
v -0.153552 -0.001578 0.370708
v -0.078280 -0.001578 0.393541
v 0.000000 -0.001578 0.401251
v 0.078280 -0.001578 0.393541
v 0.153552 -0.001578 0.370708
v 0.222922 -0.001578 0.333628
v 0.283726 -0.001578 0.283728
v 0.333627 -0.001578 0.222924
v 0.370706 -0.001578 0.153553
v 0.393540 -0.001578 0.078281
v 0.401250 -0.001578 0.000001
v 0.393540 -0.001578 -0.078279
v 0.370706 -0.001578 -0.153550
v 0.333627 -0.001578 -0.222921
v 0.283726 -0.001578 -0.283725
v 0.222922 -0.001578 -0.333626
v 0.153552 -0.001578 -0.370705
v 0.078280 -0.001578 -0.393539
vn -0.0000 1.0000 -0.0000
vn 0.0173 0.9844 0.1752
vn 0.0511 0.9844 0.1685
vn 0.0830 0.9844 0.1553
vn 0.1117 0.9844 0.1361
vn 0.1361 0.9844 0.1117
vn 0.1553 0.9844 0.0830
vn 0.1685 0.9844 0.0511
vn 0.1752 0.9844 0.0173
vn 0.1752 0.9844 -0.0173
vn 0.1685 0.9844 -0.0511
vn 0.1553 0.9844 -0.0830
vn 0.1361 0.9844 -0.1117
vn 0.1117 0.9844 -0.1361
vn 0.0830 0.9844 -0.1553
vn 0.0511 0.9844 -0.1685
vn 0.0173 0.9844 -0.1752
vn -0.0173 0.9844 -0.1752
vn -0.0511 0.9844 -0.1685
vn -0.0830 0.9844 -0.1553
vn -0.1117 0.9844 -0.1361
vn -0.1361 0.9844 -0.1117
vn -0.1553 0.9844 -0.0830
vn -0.1685 0.9844 -0.0511
vn -0.1752 0.9844 -0.0173
vn -0.1752 0.9844 0.0173
vn -0.1685 0.9844 0.0511
vn -0.1553 0.9844 0.0830
vn -0.1361 0.9844 0.1117
vn -0.1117 0.9844 0.1361
vn -0.0830 0.9844 0.1553
vn -0.0511 0.9844 0.1685
vn -0.0173 0.9844 0.1752
vn -0.0300 0.9520 0.3048
vn -0.0889 0.9520 0.2931
vn -0.1444 0.9520 0.2701
vn -0.1943 0.9520 0.2367
vn -0.2367 0.9520 0.1943
vn -0.2701 0.9520 0.1444
vn -0.2931 0.9520 0.0889
vn -0.3048 0.9520 0.0300
vn -0.3048 0.9520 -0.0300
vn -0.2931 0.9520 -0.0889
vn -0.2701 0.9520 -0.1444
vn -0.2367 0.9520 -0.1943
vn -0.1943 0.9520 -0.2367
vn -0.1444 0.9520 -0.2701
vn -0.0889 0.9520 -0.2931
vn -0.0300 0.9520 -0.3048
vn 0.0300 0.9520 -0.3048
vn 0.0889 0.9520 -0.2931
vn 0.1444 0.9520 -0.2701
vn 0.1943 0.9520 -0.2367
vn 0.2367 0.9520 -0.1943
vn 0.2701 0.9520 -0.1444
vn 0.2931 0.9520 -0.0889
vn 0.3048 0.9520 -0.0300
vn 0.3048 0.9520 0.0300
vn 0.2931 0.9520 0.0889
vn 0.2701 0.9520 0.1444
vn 0.2367 0.9520 0.1943
vn 0.1943 0.9520 0.2367
vn 0.1444 0.9520 0.2701
vn 0.0889 0.9520 0.2931
vn 0.0300 0.9520 0.3048
vn -0.0000 -1.0000 -0.0000
vn -0.0172 -0.9844 -0.1750
vn -0.0510 -0.9844 -0.1682
vn -0.0829 -0.9844 -0.1550
vn -0.1115 -0.9844 -0.1359
vn -0.1359 -0.9844 -0.1115
vn -0.1550 -0.9844 -0.0829
vn -0.1682 -0.9844 -0.0510
vn -0.1750 -0.9844 -0.0172
vn -0.1750 -0.9844 0.0172
vn -0.1682 -0.9844 0.0510
vn -0.1550 -0.9844 0.0829
vn -0.1359 -0.9844 0.1115
vn -0.1115 -0.9844 0.1359
vn -0.0829 -0.9844 0.1550
vn -0.0510 -0.9844 0.1682
vn -0.0172 -0.9844 0.1750
vn 0.0172 -0.9844 0.1750
vn 0.0510 -0.9844 0.1682
vn 0.0829 -0.9844 0.1550
vn 0.1115 -0.9844 0.1359
vn 0.1359 -0.9844 0.1115
vn 0.1550 -0.9844 0.0829
vn 0.1682 -0.9844 0.0510
vn 0.1750 -0.9844 0.0172
vn 0.1750 -0.9844 -0.0172
vn 0.1682 -0.9844 -0.0510
vn 0.1550 -0.9844 -0.0829
vn 0.1359 -0.9844 -0.1115
vn 0.1115 -0.9844 -0.1359
vn 0.0829 -0.9844 -0.1550
vn 0.0510 -0.9844 -0.1682
vn 0.0172 -0.9844 -0.1750
vn 0.0299 -0.9522 -0.3039
vn 0.0886 -0.9522 -0.2922
vn 0.1439 -0.9522 -0.2693
vn 0.1937 -0.9522 -0.2360
vn 0.2360 -0.9522 -0.1937
vn 0.2693 -0.9522 -0.1439
vn 0.2922 -0.9522 -0.0886
vn 0.3039 -0.9522 -0.0299
vn 0.3039 -0.9522 0.0299
vn 0.2922 -0.9522 0.0886
vn 0.2693 -0.9522 0.1439
vn 0.2360 -0.9522 0.1937
vn 0.1937 -0.9522 0.2360
vn 0.1439 -0.9522 0.2693
vn 0.0886 -0.9522 0.2922
vn 0.0299 -0.9522 0.3039
vn -0.0299 -0.9522 0.3039
vn -0.0886 -0.9522 0.2922
vn -0.1439 -0.9522 0.2693
vn -0.1937 -0.9522 0.2360
vn -0.2360 -0.9522 0.1937
vn -0.2693 -0.9522 0.1439
vn -0.2922 -0.9522 0.0886
vn -0.3039 -0.9522 0.0299
vn -0.3039 -0.9522 -0.0299
vn -0.2922 -0.9522 -0.0886
vn -0.2693 -0.9522 -0.1439
vn -0.2360 -0.9522 -0.1937
vn -0.1937 -0.9522 -0.2360
vn -0.1439 -0.9522 -0.2693
vn -0.0886 -0.9522 -0.2922
vn -0.0299 -0.9522 -0.3039
vn -0.0965 0.1744 -0.9799
vn -0.2858 0.1744 -0.9423
vn -0.4642 0.1744 -0.8684
vn -0.6247 0.1744 -0.7612
vn -0.7612 0.1744 -0.6247
vn -0.8684 0.1744 -0.4642
vn -0.9423 0.1744 -0.2858
vn -0.9799 0.1744 -0.0965
vn -0.9799 0.1744 0.0965
vn -0.9423 0.1744 0.2858
vn -0.8684 0.1744 0.4642
vn -0.7612 0.1744 0.6247
vn -0.6247 0.1744 0.7612
vn -0.4642 0.1744 0.8684
vn -0.2858 0.1744 0.9423
vn -0.0965 0.1744 0.9799
vn 0.0965 0.1744 0.9799
vn 0.2858 0.1744 0.9423
vn 0.4642 0.1744 0.8684
vn 0.6247 0.1744 0.7612
vn 0.7612 0.1744 0.6247
vn 0.8684 0.1744 0.4642
vn 0.9423 0.1744 0.2858
vn 0.9799 0.1744 0.0965
vn 0.9799 0.1744 -0.0965
vn 0.9423 0.1744 -0.2858
vn 0.8684 0.1744 -0.4642
vn 0.7612 0.1744 -0.6247
vn 0.6247 0.1744 -0.7612
vn 0.4642 0.1744 -0.8684
vn 0.2858 0.1744 -0.9423
vn 0.0965 0.1744 -0.9799
vt 0.761332 0.356194
vt 0.740257 0.356195
vt 0.719587 0.352083
vt 0.700116 0.344018
vt 0.682593 0.332310
vt 0.667691 0.317407
vt 0.655982 0.299884
vt 0.647917 0.280414
vt 0.643806 0.259743
vt 0.643806 0.238669
vt 0.647917 0.217999
vt 0.655982 0.198528
vt 0.667691 0.181005
vt 0.682593 0.166103
vt 0.700116 0.154394
vt 0.719587 0.146329
vt 0.740257 0.142217
vt 0.761332 0.142217
vt 0.782002 0.146329
vt 0.801473 0.154394
vt 0.818996 0.166102
vt 0.833898 0.181005
vt 0.845607 0.198528
vt 0.853671 0.217998
vt 0.857783 0.238668
vt 0.857783 0.259743
vt 0.853672 0.280413
vt 0.845607 0.299884
vt 0.833898 0.317407
vt 0.818996 0.332309
vt 0.801473 0.344018
vt 0.782002 0.352083
vt 0.768500 0.428978
vt 0.803232 0.422069
vt 0.823485 0.488834
vt 0.775339 0.498412
vt 0.733089 0.428978
vt 0.726250 0.498412
vt 0.698357 0.422069
vt 0.678104 0.488835
vt 0.665640 0.408518
vt 0.632751 0.470049
vt 0.636197 0.388844
vt 0.591935 0.442777
vt 0.611157 0.363804
vt 0.557224 0.408065
vt 0.591482 0.334360
vt 0.529951 0.367249
vt 0.577931 0.301644
vt 0.511166 0.321897
vt 0.571022 0.266912
vt 0.501589 0.273751
vt 0.571023 0.231500
vt 0.501589 0.224662
vt 0.577931 0.196768
vt 0.511165 0.176516
vt 0.591482 0.164052
vt 0.529951 0.131163
vt 0.611156 0.134608
vt 0.557223 0.090347
vt 0.636196 0.109568
vt 0.591935 0.055635
vt 0.665640 0.089894
vt 0.632751 0.028363
vt 0.698357 0.076342
vt 0.678104 0.009577
vt 0.733088 0.069434
vt 0.726249 0.000000
vt 0.768500 0.069434
vt 0.775339 -0.000000
vt 0.803232 0.076342
vt 0.823485 0.009577
vt 0.835948 0.089894
vt 0.868837 0.028363
vt 0.865392 0.109568
vt 0.909654 0.055635
vt 0.890432 0.134608
vt 0.944365 0.090347
vt 0.910106 0.164052
vt 0.971637 0.131163
vt 0.923658 0.196768
vt 0.990423 0.176515
vt 0.930566 0.231500
vt 1.000000 0.224661
vt 0.930566 0.266912
vt 1.000000 0.273750
vt 0.923658 0.301644
vt 0.990423 0.321896
vt 0.910106 0.334360
vt 0.971638 0.367249
vt 0.890433 0.363804
vt 0.944365 0.408065
vt 0.865392 0.388844
vt 0.909654 0.442776
vt 0.835949 0.408517
vt 0.868838 0.470049
vt 0.261478 0.359267
vt 0.240111 0.359267
vt 0.219154 0.355099
vt 0.199413 0.346922
vt 0.181647 0.335051
vt 0.166538 0.319942
vt 0.154667 0.302176
vt 0.146490 0.282435
vt 0.142322 0.261478
vt 0.142321 0.240111
vt 0.146490 0.219154
vt 0.154667 0.199413
vt 0.166538 0.181647
vt 0.181647 0.166538
vt 0.199413 0.154667
vt 0.219154 0.146490
vt 0.240111 0.142322
vt 0.261478 0.142322
vt 0.282435 0.146490
vt 0.302176 0.154667
vt 0.319942 0.166539
vt 0.335051 0.181647
vt 0.346922 0.199414
vt 0.355099 0.219154
vt 0.359267 0.240111
vt 0.359267 0.261479
vt 0.355098 0.282435
vt 0.346922 0.302176
vt 0.335051 0.319942
vt 0.319942 0.335051
vt 0.302176 0.346922
vt 0.282435 0.355099
vt 0.268711 0.432713
vt 0.275495 0.501589
vt 0.226093 0.501589
vt 0.232877 0.432712
vt 0.303858 0.425722
vt 0.323948 0.491951
vt 0.336964 0.412008
vt 0.369590 0.473046
vt 0.366760 0.392100
vt 0.410666 0.445600
vt 0.392099 0.366761
vt 0.445599 0.410667
vt 0.412008 0.336965
vt 0.473045 0.369591
vt 0.425721 0.303859
vt 0.491951 0.323949
vt 0.432712 0.268712
vt 0.501589 0.275496
vt 0.432712 0.232878
vt 0.501589 0.226094
vt 0.425721 0.197731
vt 0.491951 0.177641
vt 0.412008 0.164624
vt 0.473046 0.131999
vt 0.392099 0.134829
vt 0.445599 0.090922
vt 0.366760 0.109490
vt 0.410667 0.055990
vt 0.336965 0.089581
vt 0.369590 0.028544
vt 0.303858 0.075868
vt 0.323949 0.009638
vt 0.268712 0.068877
vt 0.275496 0.000000
vt 0.232877 0.068877
vt 0.226094 0.000000
vt 0.197731 0.075867
vt 0.177641 0.009638
vt 0.164624 0.089581
vt 0.131999 0.028543
vt 0.134829 0.109490
vt 0.090923 0.055989
vt 0.109490 0.134828
vt 0.055990 0.090922
vt 0.089581 0.164624
vt 0.028543 0.131998
vt 0.075867 0.197731
vt 0.009638 0.177640
vt 0.068876 0.232877
vt 0.000000 0.226093
vt 0.068876 0.268712
vt 0.000000 0.275495
vt 0.075868 0.303858
vt 0.009638 0.323948
vt 0.089581 0.336965
vt 0.028543 0.369590
vt 0.109490 0.366760
vt 0.055989 0.410667
vt 0.134828 0.392099
vt 0.090922 0.445599
vt 0.164624 0.412008
vt 0.131998 0.473046
vt 0.197731 0.425722
vt 0.177640 0.491951
vt 0.581390 0.633739
vt 0.581390 0.682828
vt 0.572280 0.682985
vt 0.572280 0.633583
vt 0.583125 0.585593
vt 0.574026 0.585130
vt 0.586527 0.540241
vt 0.577449 0.539488
vt 0.591466 0.499424
vt 0.582420 0.498412
vt 0.520964 0.838833
vt 0.527369 0.879445
vt 0.518366 0.880783
vt 0.511920 0.839912
vt 0.515932 0.793633
vt 0.506856 0.794423
vt 0.512466 0.745580
vt 0.503367 0.746064
vt 0.510699 0.696523
vt 0.501589 0.696694
vt 0.510699 0.648346
vt 0.501589 0.648210
vt 0.512466 0.602900
vt 0.503367 0.602474
vt 0.515932 0.561932
vt 0.506856 0.561246
vt 0.520964 0.527017
vt 0.511920 0.526108
vt 0.527369 0.499496
vt 0.518366 0.498412
vt 0.555490 0.534303
vt 0.549824 0.499485
vt 0.558851 0.498412
vt 0.564553 0.533452
vt 0.559701 0.575201
vt 0.568790 0.574610
vt 0.562293 0.620607
vt 0.571399 0.620305
vt 0.563169 0.668776
vt 0.572280 0.668782
vt 0.562293 0.717857
vt 0.571399 0.718176
vt 0.559701 0.765965
vt 0.568790 0.766590
vt 0.555490 0.811249
vt 0.564553 0.812164
vt 0.549824 0.851971
vt 0.558851 0.853145
vt 0.533035 0.534303
vt 0.527369 0.499485
vt 0.536396 0.498411
vt 0.542097 0.533451
vt 0.537245 0.575201
vt 0.546334 0.574610
vt 0.539838 0.620607
vt 0.548943 0.620306
vt 0.540713 0.668776
vt 0.549824 0.668782
vt 0.539838 0.717857
vt 0.548944 0.718176
vt 0.537245 0.765965
vt 0.546334 0.766591
vt 0.533035 0.811249
vt 0.542097 0.812164
vt 0.527369 0.851971
vt 0.536396 0.853145
vt 0.586527 0.776327
vt 0.591466 0.817143
vt 0.582420 0.818156
vt 0.577449 0.777079
vt 0.583125 0.730974
vt 0.574026 0.731438
s 0
f 33/1/1 35/2/1 36/3/1 37/4/1 38/5/1 39/6/1 40/7/1 41/8/1 42/9/1 43/10/1 44/11/1 45/12/1 46/13/1 47/14/1 48/15/1 49/16/1 50/17/1 51/18/1 52/19/1 53/20/1 54/21/1 55/22/1 56/23/1 57/24/1 58/25/1 59/26/1 60/27/1 61/28/1 62/29/1 63/30/1 64/31/1 34/32/1
f 65/33/2 66/34/2 1/35/2 2/36/2
f 67/37/3 65/33/3 2/36/3 3/38/3
f 68/39/4 67/37/4 3/38/4 4/40/4
f 69/41/5 68/39/5 4/40/5 5/42/5
f 70/43/6 69/41/6 5/42/6 6/44/6
f 71/45/7 70/43/7 6/44/7 7/46/7
f 72/47/8 71/45/8 7/46/8 8/48/8
f 73/49/9 72/47/9 8/48/9 9/50/9
f 74/51/10 73/49/10 9/50/10 10/52/10
f 75/53/11 74/51/11 10/52/11 11/54/11
f 76/55/12 75/53/12 11/54/12 12/56/12
f 77/57/13 76/55/13 12/56/13 13/58/13
f 78/59/14 77/57/14 13/58/14 14/60/14
f 79/61/15 78/59/15 14/60/15 15/62/15
f 80/63/16 79/61/16 15/62/16 16/64/16
f 81/65/17 80/63/17 16/64/17 17/66/17
f 82/67/18 81/65/18 17/66/18 18/68/18
f 83/69/19 82/67/19 18/68/19 19/70/19
f 84/71/20 83/69/20 19/70/20 20/72/20
f 85/73/21 84/71/21 20/72/21 21/74/21
f 86/75/22 85/73/22 21/74/22 22/76/22
f 87/77/23 86/75/23 22/76/23 23/78/23
f 88/79/24 87/77/24 23/78/24 24/80/24
f 89/81/25 88/79/25 24/80/25 25/82/25
f 90/83/26 89/81/26 25/82/26 26/84/26
f 91/85/27 90/83/27 26/84/27 27/86/27
f 92/87/28 91/85/28 27/86/28 28/88/28
f 93/89/29 92/87/29 28/88/29 29/90/29
f 94/91/30 93/89/30 29/90/30 30/92/30
f 95/93/31 94/91/31 30/92/31 31/94/31
f 96/95/32 95/93/32 31/94/32 32/96/32
f 66/34/33 96/95/33 32/96/33 1/35/33
f 34/32/34 64/31/34 96/95/34 66/34/34
f 64/31/35 63/30/35 95/93/35 96/95/35
f 63/30/36 62/29/36 94/91/36 95/93/36
f 62/29/37 61/28/37 93/89/37 94/91/37
f 61/28/38 60/27/38 92/87/38 93/89/38
f 60/27/39 59/26/39 91/85/39 92/87/39
f 59/26/40 58/25/40 90/83/40 91/85/40
f 58/25/41 57/24/41 89/81/41 90/83/41
f 57/24/42 56/23/42 88/79/42 89/81/42
f 56/23/43 55/22/43 87/77/43 88/79/43
f 55/22/44 54/21/44 86/75/44 87/77/44
f 54/21/45 53/20/45 85/73/45 86/75/45
f 53/20/46 52/19/46 84/71/46 85/73/46
f 52/19/47 51/18/47 83/69/47 84/71/47
f 51/18/48 50/17/48 82/67/48 83/69/48
f 50/17/49 49/16/49 81/65/49 82/67/49
f 49/16/50 48/15/50 80/63/50 81/65/50
f 48/15/51 47/14/51 79/61/51 80/63/51
f 47/14/52 46/13/52 78/59/52 79/61/52
f 46/13/53 45/12/53 77/57/53 78/59/53
f 45/12/54 44/11/54 76/55/54 77/57/54
f 44/11/55 43/10/55 75/53/55 76/55/55
f 43/10/56 42/9/56 74/51/56 75/53/56
f 42/9/57 41/8/57 73/49/57 74/51/57
f 41/8/58 40/7/58 72/47/58 73/49/58
f 40/7/59 39/6/59 71/45/59 72/47/59
f 39/6/60 38/5/60 70/43/60 71/45/60
f 38/5/61 37/4/61 69/41/61 70/43/61
f 37/4/62 36/3/62 68/39/62 69/41/62
f 36/3/63 35/2/63 67/37/63 68/39/63
f 35/2/64 33/1/64 65/33/64 67/37/64
f 33/1/65 34/32/65 66/34/65 65/33/65
f 129/97/66 130/98/66 160/99/66 159/100/66 158/101/66 157/102/66 156/103/66 155/104/66 154/105/66 153/106/66 152/107/66 151/108/66 150/109/66 149/110/66 148/111/66 147/112/66 146/113/66 145/114/66 144/115/66 143/116/66 142/117/66 141/118/66 140/119/66 139/120/66 138/121/66 137/122/66 136/123/66 135/124/66 134/125/66 133/126/66 132/127/66 131/128/66
f 161/129/67 98/130/67 97/131/67 162/132/67
f 163/133/68 99/134/68 98/130/68 161/129/68
f 164/135/69 100/136/69 99/134/69 163/133/69
f 165/137/70 101/138/70 100/136/70 164/135/70
f 166/139/71 102/140/71 101/138/71 165/137/71
f 167/141/72 103/142/72 102/140/72 166/139/72
f 168/143/73 104/144/73 103/142/73 167/141/73
f 169/145/74 105/146/74 104/144/74 168/143/74
f 170/147/75 106/148/75 105/146/75 169/145/75
f 171/149/76 107/150/76 106/148/76 170/147/76
f 172/151/77 108/152/77 107/150/77 171/149/77
f 173/153/78 109/154/78 108/152/78 172/151/78
f 174/155/79 110/156/79 109/154/79 173/153/79
f 175/157/80 111/158/80 110/156/80 174/155/80
f 176/159/81 112/160/81 111/158/81 175/157/81
f 177/161/82 113/162/82 112/160/82 176/159/82
f 178/163/83 114/164/83 113/162/83 177/161/83
f 179/165/84 115/166/84 114/164/84 178/163/84
f 180/167/85 116/168/85 115/166/85 179/165/85
f 181/169/86 117/170/86 116/168/86 180/167/86
f 182/171/87 118/172/87 117/170/87 181/169/87
f 183/173/88 119/174/88 118/172/88 182/171/88
f 184/175/89 120/176/89 119/174/89 183/173/89
f 185/177/90 121/178/90 120/176/90 184/175/90
f 186/179/91 122/180/91 121/178/91 185/177/91
f 187/181/92 123/182/92 122/180/92 186/179/92
f 188/183/93 124/184/93 123/182/93 187/181/93
f 189/185/94 125/186/94 124/184/94 188/183/94
f 190/187/95 126/188/95 125/186/95 189/185/95
f 191/189/96 127/190/96 126/188/96 190/187/96
f 192/191/97 128/192/97 127/190/97 191/189/97
f 162/132/98 97/131/98 128/192/98 192/191/98
f 130/98/99 162/132/99 192/191/99 160/99/99
f 160/99/100 192/191/100 191/189/100 159/100/100
f 159/100/101 191/189/101 190/187/101 158/101/101
f 158/101/102 190/187/102 189/185/102 157/102/102
f 157/102/103 189/185/103 188/183/103 156/103/103
f 156/103/104 188/183/104 187/181/104 155/104/104
f 155/104/105 187/181/105 186/179/105 154/105/105
f 154/105/106 186/179/106 185/177/106 153/106/106
f 153/106/107 185/177/107 184/175/107 152/107/107
f 152/107/108 184/175/108 183/173/108 151/108/108
f 151/108/109 183/173/109 182/171/109 150/109/109
f 150/109/110 182/171/110 181/169/110 149/110/110
f 149/110/111 181/169/111 180/167/111 148/111/111
f 148/111/112 180/167/112 179/165/112 147/112/112
f 147/112/113 179/165/113 178/163/113 146/113/113
f 146/113/114 178/163/114 177/161/114 145/114/114
f 145/114/115 177/161/115 176/159/115 144/115/115
f 144/115/116 176/159/116 175/157/116 143/116/116
f 143/116/117 175/157/117 174/155/117 142/117/117
f 142/117/118 174/155/118 173/153/118 141/118/118
f 141/118/119 173/153/119 172/151/119 140/119/119
f 140/119/120 172/151/120 171/149/120 139/120/120
f 139/120/121 171/149/121 170/147/121 138/121/121
f 138/121/122 170/147/122 169/145/122 137/122/122
f 137/122/123 169/145/123 168/143/123 136/123/123
f 136/123/124 168/143/124 167/141/124 135/124/124
f 135/124/125 167/141/125 166/139/125 134/125/125
f 134/125/126 166/139/126 165/137/126 133/126/126
f 133/126/127 165/137/127 164/135/127 132/127/127
f 132/127/128 164/135/128 163/133/128 131/128/128
f 131/128/129 163/133/129 161/129/129 129/97/129
f 129/97/130 161/129/130 162/132/130 130/98/130
f 2/193/131 1/194/131 97/195/131 98/196/131
f 3/197/132 2/193/132 98/196/132 99/198/132
f 4/199/133 3/197/133 99/198/133 100/200/133
f 5/201/134 4/199/134 100/200/134 101/202/134
f 6/203/135 5/204/135 101/205/135 102/206/135
f 7/207/136 6/203/136 102/206/136 103/208/136
f 8/209/137 7/207/137 103/208/137 104/210/137
f 9/211/138 8/209/138 104/210/138 105/212/138
f 10/213/139 9/211/139 105/212/139 106/214/139
f 11/215/140 10/213/140 106/214/140 107/216/140
f 12/217/141 11/215/141 107/216/141 108/218/141
f 13/219/142 12/217/142 108/218/142 109/220/142
f 14/221/143 13/219/143 109/220/143 110/222/143
f 15/223/144 14/224/144 110/225/144 111/226/144
f 16/227/145 15/223/145 111/226/145 112/228/145
f 17/229/146 16/227/146 112/228/146 113/230/146
f 18/231/147 17/229/147 113/230/147 114/232/147
f 19/233/148 18/231/148 114/232/148 115/234/148
f 20/235/149 19/233/149 115/234/149 116/236/149
f 21/237/150 20/235/150 116/236/150 117/238/150
f 22/239/151 21/237/151 117/238/151 118/240/151
f 23/241/152 22/242/152 118/243/152 119/244/152
f 24/245/153 23/241/153 119/244/153 120/246/153
f 25/247/154 24/245/154 120/246/154 121/248/154
f 26/249/155 25/247/155 121/248/155 122/250/155
f 27/251/156 26/249/156 122/250/156 123/252/156
f 28/253/157 27/251/157 123/252/157 124/254/157
f 29/255/158 28/253/158 124/254/158 125/256/158
f 30/257/159 29/255/159 125/256/159 126/258/159
f 31/259/160 30/260/160 126/261/160 127/262/160
f 32/263/161 31/259/161 127/262/161 128/264/161
f 1/194/162 32/263/162 128/264/162 97/195/162
