# Blender 4.0.1
# www.blender.org
mtllib resto.mtl
o Mur
v -5.000883 -0.571203 9.794700
v -5.000883 7.254222 9.794700
v -5.000883 -0.571203 -9.794700
v -5.000883 7.254222 -9.794700
v -4.864788 -0.571203 9.794700
v -4.864788 7.254222 9.794700
v -4.864788 -0.571203 -9.794700
v -4.864788 7.254222 -9.794700
v -5.000883 -0.571203 -6.702091
v -5.000883 7.254222 -6.702091
v -4.864788 -0.571203 -6.702091
v -4.864788 7.254222 -6.702091
v -5.000883 -0.571203 -4.744123
v -4.864788 7.254222 -4.744123
v -5.000883 7.254222 -4.744123
v -4.864788 -0.571203 -4.744123
v -5.000883 5.504322 9.794700
v -5.000883 5.504322 -9.794700
v -4.864788 5.504322 -9.794700
v -4.864788 5.504322 9.794700
v -4.864788 5.504322 -6.702091
v -5.000883 5.504322 -6.702091
v -5.000883 5.504322 -4.744123
v -4.864788 5.504322 -4.744123
v -5.000883 1.368118 -9.794700
v -4.864788 1.368118 -9.794700
v -4.864788 1.368118 9.794700
v -4.864788 1.368118 -6.702091
v -5.000883 1.368118 -6.702091
v -5.000883 1.368118 -4.744123
v -4.864788 1.368118 -4.744123
v -5.000883 1.368118 9.794700
v -5.000883 -0.571203 5.097145
v -4.864788 7.254222 5.097145
v -5.000883 7.254222 5.097145
v -4.864788 -0.571203 5.097145
v -5.000883 5.504322 5.097145
v -4.864788 5.504322 5.097145
v -4.864788 1.368118 5.097145
v -5.000883 1.368118 5.097145
v -5.000883 -0.571203 7.176882
v -4.864788 7.254222 7.176882
v -4.864788 5.504322 7.176882
v -4.864788 1.368118 7.176882
v -5.000883 7.254222 7.176882
v -4.864788 -0.571203 7.176882
v -5.000883 5.504322 7.176882
v -5.000883 1.368118 7.176882
v -5.000883 7.254222 0.818333
v -4.864788 -0.571203 0.818333
v -5.000883 5.504322 0.818333
v -5.000883 1.368118 0.818333
v -5.000883 -0.571203 0.818333
v -4.864788 7.254222 0.818333
v -4.864788 5.504322 0.818333
v -4.864788 1.368118 0.818333
v -5.000883 7.254222 -0.854294
v -4.864788 -0.571203 -0.854294
v -5.000883 5.504322 -0.854294
v -5.000883 1.368118 -0.854294
v -5.000883 -0.571203 -0.854294
v -4.864788 7.254222 -0.854294
v -4.864788 5.504322 -0.854294
v -4.864788 1.368118 -0.854294
v -4.786321 7.254222 -0.854294
v -4.786321 7.254222 0.818333
v -4.786321 5.504322 -0.854294
v -4.786321 5.504322 0.818333
v -4.786321 1.368118 -0.854294
v -4.786321 1.368118 0.818333
v -4.786321 -0.571203 0.818333
v -4.786321 -0.571203 -0.854294
vn -1.0000 -0.0000 -0.0000
vn -0.0000 -0.0000 -1.0000
vn 1.0000 -0.0000 -0.0000
vn -0.0000 -0.0000 1.0000
vn -0.0000 -1.0000 -0.0000
vn -0.0000 1.0000 -0.0000
vt 0.569096 0.210532
vt 0.625000 0.210532
vt 0.625000 0.250000
vt 0.569096 0.250000
vt 0.625000 0.500000
vt 0.569096 0.500000
vt 0.569096 0.716591
vt 0.625000 0.716591
vt 0.625000 0.750000
vt 0.569096 0.750000
vt 0.625000 1.000000
vt 0.569096 1.000000
vt 0.125000 0.716591
vt 0.375000 0.716591
vt 0.375000 0.750000
vt 0.125000 0.750000
vt 0.875000 0.716591
vt 0.875000 0.750000
vt 0.875000 0.500000
vt 0.875000 0.539468
vt 0.625000 0.539468
vt 0.125000 0.500000
vt 0.375000 0.500000
vt 0.375000 0.539468
vt 0.125000 0.539468
vt 0.569096 0.539468
vt 0.569096 0.185545
vt 0.625000 0.185545
vt 0.569096 0.135902
vt 0.625000 0.135902
vt 0.875000 0.564455
vt 0.625000 0.564456
vt 0.375000 0.564456
vt 0.125000 0.564455
vt 0.569096 0.564456
vt 0.569096 0.033409
vt 0.569096 0.059950
vt 0.569096 0.690050
vt 0.436956 0.135902
vt 0.436956 0.185545
vt 0.436956 0.033409
vt 0.436956 0.716591
vt 0.436956 0.690050
vt 0.436956 0.059950
vt 0.436956 0.500000
vt 0.436956 0.539468
vt 0.436956 0.750000
vt 0.436956 1.000000
vt 0.436956 0.250000
vt 0.436956 0.210532
vt 0.375000 0.210532
vt 0.375000 0.250000
vt 0.375000 1.000000
vt 0.375000 0.185545
vt 0.375000 0.135902
vt 0.436956 0.564456
vt 0.375000 0.033409
vt 0.375000 0.059950
vt 0.375000 0.635444
vt 0.436956 0.635444
vt 0.375000 0.690050
vt 0.569096 0.635444
vt 0.625000 0.033409
vt 0.625000 0.059950
vt 0.625000 0.635444
vt 0.875000 0.635444
vt 0.875000 0.690050
vt 0.625000 0.690050
vt 0.125000 0.635444
vt 0.125000 0.690050
vt 0.569096 0.000000
vt 0.625000 0.000000
vt 0.436956 0.000000
vt 0.375000 0.000000
vt 0.375000 0.614098
vt 0.125000 0.614097
vt 0.625000 0.614098
vt 0.875000 0.614097
vt 0.569096 0.614098
vt 0.436956 0.114556
vt 0.375000 0.114556
vt 0.569096 0.114556
vt 0.625000 0.114556
vt 0.436956 0.614098
s 0
usemtl murs
f 22/1/1 10/2/1 4/3/1 18/4/1
f 18/4/2 4/3/2 8/5/2 19/6/2
f 43/7/3 42/8/3 6/9/3 20/10/3
f 20/10/4 6/9/4 2/11/4 17/12/4
f 41/13/5 46/14/5 5/15/5 1/16/5
f 42/8/6 45/17/6 2/18/6 6/9/6
f 8/5/6 4/19/6 10/20/6 12/21/6
f 3/22/5 7/23/5 11/24/5 9/25/5
f 19/6/3 8/5/3 12/21/3 21/26/3
f 23/27/1 15/28/1 10/2/1 22/1/1
f 59/29/1 57/30/1 15/28/1 23/27/1
f 12/21/6 10/20/6 15/31/6 14/32/6
f 9/25/5 11/24/5 16/33/5 13/34/5
f 21/26/3 12/21/3 14/32/3 24/35/3
f 47/36/5 37/37/5 38/38/5 43/7/5
f 60/39/1 59/29/1 23/27/1 30/40/1
f 48/41/6 44/42/6 39/43/6 40/44/6
f 26/45/3 19/6/3 21/26/3 28/46/3
f 27/47/4 20/10/4 17/12/4 32/48/4
f 44/42/3 43/7/3 20/10/3 27/47/3
f 25/49/2 18/4/2 19/6/2 26/45/2
f 29/50/1 22/1/1 18/4/1 25/49/1
f 9/51/1 29/50/1 25/49/1 3/52/1
f 3/52/2 25/49/2 26/45/2 7/23/2
f 46/14/3 44/42/3 27/47/3 5/15/3
f 5/15/4 27/47/4 32/48/4 1/53/4
f 7/23/3 26/45/3 28/46/3 11/24/3
f 13/54/1 30/40/1 29/50/1 9/51/1
f 61/55/1 60/39/1 30/40/1 13/54/1
f 11/24/3 28/46/3 31/56/3 16/33/3
f 41/57/1 48/41/1 40/44/1 33/58/1
f 50/59/3 56/60/3 39/43/3 36/61/3
f 56/60/3 55/62/3 38/38/3 39/43/3
f 48/41/2 47/36/2 43/7/2 44/42/2
f 47/36/1 45/63/1 35/64/1 37/37/1
f 54/65/6 49/66/6 35/67/6 34/68/6
f 53/69/5 50/59/5 36/61/5 33/70/5
f 55/62/3 54/65/3 34/68/3 38/38/3
f 17/71/1 2/72/1 45/63/1 47/36/1
f 32/73/1 17/71/1 47/36/1 48/41/1
f 1/74/1 32/73/1 48/41/1 41/57/1
f 36/61/3 39/43/3 44/42/3 46/14/3
f 39/43/4 38/38/4 37/37/4 40/44/4
f 34/68/6 35/67/6 45/17/6 42/8/6
f 33/70/5 36/61/5 46/14/5 41/13/5
f 38/38/3 34/68/3 42/8/3 43/7/3
f 30/40/6 31/56/6 28/46/6 29/50/6
f 28/46/4 21/26/4 22/1/4 29/50/4
f 30/40/2 23/27/2 24/35/2 31/56/2
f 21/26/5 24/35/5 23/27/5 22/1/5
f 50/59/5 58/75/5 72/75/5 71/59/5
f 61/76/5 58/75/5 50/59/5 53/69/5
f 62/77/6 57/78/6 49/66/6 54/65/6
f 63/79/2 62/77/2 65/77/2 67/79/2
f 54/65/4 55/62/4 68/62/4 66/65/4
f 33/58/1 40/44/1 52/80/1 53/81/1
f 40/44/1 37/37/1 51/82/1 52/80/1
f 37/37/1 35/64/1 49/83/1 51/82/1
f 16/33/3 31/56/3 64/84/3 58/75/3
f 31/56/3 24/35/3 63/79/3 64/84/3
f 14/32/6 15/31/6 57/78/6 62/77/6
f 13/34/5 16/33/5 58/75/5 61/76/5
f 24/35/3 14/32/3 62/77/3 63/79/3
f 53/81/1 52/80/1 60/39/1 61/55/1
f 52/80/1 51/82/1 59/29/1 60/39/1
f 51/82/1 49/83/1 57/30/1 59/29/1
f 58/75/2 64/84/2 69/84/2 72/75/2
f 55/62/4 56/60/4 70/60/4 68/62/4
f 62/77/6 54/65/6 66/65/6 65/77/6
f 64/84/2 63/79/2 67/79/2 69/84/2
f 56/60/4 50/59/4 71/59/4 70/60/4
usemtl mur2
f 67/79/3 65/77/3 66/65/3 68/62/3
f 69/84/3 67/79/3 68/62/3 70/60/3
f 72/75/3 69/84/3 70/60/3 71/59/3
o Mur.001
v 19.426056 -0.567392 9.829743
v 19.426056 7.239051 9.829743
v -5.000882 -0.567392 9.829743
v -5.000882 7.239051 9.829743
v 19.426056 -0.567392 9.693648
v 19.426056 7.239051 9.693648
v -5.000882 -0.567392 9.693648
v -5.000882 7.239051 9.693648
vn -0.0000 -0.0000 1.0000
vn -1.0000 -0.0000 -0.0000
vn -0.0000 -0.0000 -1.0000
vn 1.0000 -0.0000 -0.0000
vn -0.0000 -1.0000 -0.0000
vn -0.0000 1.0000 -0.0000
vt 0.375000 0.000000
vt 0.625000 0.000000
vt 0.625000 0.250000
vt 0.375000 0.250000
vt 0.625000 0.500000
vt 0.375000 0.500000
vt 0.625000 0.750000
vt 0.375000 0.750000
vt 0.625000 1.000000
vt 0.375000 1.000000
vt 0.125000 0.500000
vt 0.125000 0.750000
vt 0.875000 0.500000
vt 0.875000 0.750000
s 0
usemtl murs
f 73/85/7 74/86/7 76/87/7 75/88/7
f 75/88/8 76/87/8 80/89/8 79/90/8
f 79/90/9 80/89/9 78/91/9 77/92/9
f 77/92/10 78/91/10 74/93/10 73/94/10
f 75/95/11 79/90/11 77/92/11 73/96/11
f 80/89/12 76/97/12 74/98/12 78/91/12
o Mur.002
v 19.426056 -0.567392 -9.700694
v 19.426056 7.239051 -9.700694
v -5.000882 -0.567392 -9.700694
v -5.000882 7.239051 -9.700694
v 19.426056 -0.567392 -9.836789
v 19.426056 7.239051 -9.836789
v -5.000882 -0.567392 -9.836789
v -5.000882 7.239051 -9.836789
vn -0.0000 -0.0000 1.0000
vn -1.0000 -0.0000 -0.0000
vn -0.0000 -0.0000 -1.0000
vn 1.0000 -0.0000 -0.0000
vn -0.0000 -1.0000 -0.0000
vn -0.0000 1.0000 -0.0000
vt 0.375000 0.000000
vt 0.625000 0.000000
vt 0.625000 0.250000
vt 0.375000 0.250000
vt 0.625000 0.500000
vt 0.375000 0.500000
vt 0.625000 0.750000
vt 0.375000 0.750000
vt 0.625000 1.000000
vt 0.375000 1.000000
vt 0.125000 0.500000
vt 0.125000 0.750000
vt 0.875000 0.500000
vt 0.875000 0.750000
s 0
usemtl murs
f 81/99/13 82/100/13 84/101/13 83/102/13
f 83/102/14 84/101/14 88/103/14 87/104/14
f 87/104/15 88/103/15 86/105/15 85/106/15
f 85/106/16 86/105/16 82/107/16 81/108/16
f 83/109/17 87/104/17 85/106/17 81/110/17
f 88/103/18 84/111/18 82/112/18 86/105/18
o Sol
v -5.000882 0.000050 9.829744
v 19.562151 0.000050 9.829744
v -5.000882 0.000050 -9.836788
v 19.562151 0.000050 -9.836788
vn -0.0000 1.0000 -0.0000
vt 0.000000 0.000000
vt 1.000000 0.000000
vt 1.000000 1.000000
vt 0.000000 1.000000
s 0
usemtl sol
f 89/113/19 90/114/19 92/115/19 91/116/19
o plafond
v -5.051362 7.206664 9.798509
v -5.051362 7.375268 9.798509
v -5.051362 7.206664 -9.798509
v -5.051362 7.375268 -9.798509
v 22.118904 7.206664 9.798509
v 22.118904 7.375268 9.798509
v 22.118904 7.206664 -9.798509
v 22.118904 7.375268 -9.798509
vn -1.0000 -0.0000 -0.0000
vn -0.0000 -0.0000 -1.0000
vn 1.0000 -0.0000 -0.0000
vn -0.0000 -0.0000 1.0000
vn -0.0000 -1.0000 -0.0000
vn -0.0000 1.0000 -0.0000
vt 0.375000 0.000000
vt 0.625000 0.000000
vt 0.625000 0.250000
vt 0.375000 0.250000
vt 0.625000 0.500000
vt 0.375000 0.500000
vt 0.625000 0.750000
vt 0.375000 0.750000
vt 0.625000 1.000000
vt 0.375000 1.000000
vt 0.125000 0.500000
vt 0.125000 0.750000
vt 0.875000 0.500000
vt 0.875000 0.750000
s 0
f 93/117/20 94/118/20 96/119/20 95/120/20
f 95/120/21 96/119/21 100/121/21 99/122/21
f 99/122/22 100/121/22 98/123/22 97/124/22
f 97/124/23 98/123/23 94/125/23 93/126/23
f 95/127/24 99/122/24 97/124/24 93/128/24
f 100/121/25 96/129/25 94/130/25 98/123/25
o window
v -5.107451 5.251089 7.180958
v -5.107451 5.562545 7.180958
v -5.107451 5.251089 5.092175
v -5.107451 5.562545 5.092175
v -4.774975 5.251089 7.180958
v -4.774975 5.562545 7.180958
v -4.774975 5.251089 5.092175
v -4.774975 5.562545 5.092175
v -5.107452 1.293851 7.180958
v -5.107452 1.605307 7.180958
v -5.107452 1.293851 5.092175
v -5.107452 1.605307 5.092175
v -4.774975 1.293851 7.180958
v -4.774975 1.605307 7.180958
v -4.774975 1.293851 5.092175
v -4.774975 1.605307 5.092175
v -5.107452 1.605307 6.988724
v -5.107452 1.605307 7.180958
v -5.107452 5.251089 6.988724
v -5.107452 5.251089 7.180959
v -4.774975 1.605307 6.988724
v -4.774975 1.605307 7.180958
v -4.774975 5.251089 6.988724
v -4.774975 5.251089 7.180959
v -5.107452 1.605307 5.092175
v -5.107452 1.605307 5.284409
v -5.107452 5.251089 5.092175
v -5.107452 5.251089 5.284409
v -4.774975 1.605307 5.092175
v -4.774975 1.605307 5.284409
v -4.774975 5.251089 5.092175
v -4.774975 5.251089 5.284409
v -5.107452 1.605307 6.019447
v -5.107452 1.605307 6.211681
v -5.107452 5.251089 6.019447
v -5.107452 5.251089 6.211681
v -4.774975 1.605307 6.019447
v -4.774975 1.605307 6.211681
v -4.774975 5.251089 6.019447
v -4.774975 5.251089 6.211681
v -5.087646 3.289957 6.992549
v -5.087646 3.601412 6.992549
v -5.087646 3.289957 5.278558
v -5.087646 3.601412 5.278558
v -4.794781 3.289957 6.992549
v -4.794781 3.601412 6.992549
v -4.794781 3.289957 5.278558
v -4.794781 3.601412 5.278558
vn -1.0000 -0.0000 -0.0000
vn -0.0000 -0.0000 -1.0000
vn 1.0000 -0.0000 -0.0000
vn -0.0000 -0.0000 1.0000
vn -0.0000 -1.0000 -0.0000
vn -0.0000 1.0000 -0.0000
vt 0.375000 0.000000
vt 0.625000 0.000000
vt 0.625000 0.250000
vt 0.375000 0.250000
vt 0.625000 0.500000
vt 0.375000 0.500000
vt 0.625000 0.750000
vt 0.375000 0.750000
vt 0.625000 1.000000
vt 0.375000 1.000000
vt 0.125000 0.500000
vt 0.125000 0.750000
vt 0.875000 0.500000
vt 0.875000 0.750000
s 0
usemtl window
f 101/131/26 102/132/26 104/133/26 103/134/26
f 103/134/27 104/133/27 108/135/27 107/136/27
f 107/136/28 108/135/28 106/137/28 105/138/28
f 105/138/29 106/137/29 102/139/29 101/140/29
f 103/141/30 107/136/30 105/138/30 101/142/30
f 108/135/31 104/143/31 102/144/31 106/137/31
f 109/131/26 110/132/26 112/133/26 111/134/26
f 111/134/27 112/133/27 116/135/27 115/136/27
f 115/136/28 116/135/28 114/137/28 113/138/28
f 113/138/29 114/137/29 110/139/29 109/140/29
f 111/141/30 115/136/30 113/138/30 109/142/30
f 116/135/31 112/143/31 110/144/31 114/137/31
f 117/131/26 118/132/26 120/133/26 119/134/26
f 119/134/31 120/133/31 124/135/31 123/136/31
f 123/136/28 124/135/28 122/137/28 121/138/28
f 121/138/30 122/137/30 118/139/30 117/140/30
f 119/141/27 123/136/27 121/138/27 117/142/27
f 124/135/29 120/143/29 118/144/29 122/137/29
f 125/131/26 126/132/26 128/133/26 127/134/26
f 127/134/31 128/133/31 132/135/31 131/136/31
f 131/136/28 132/135/28 130/137/28 129/138/28
f 129/138/30 130/137/30 126/139/30 125/140/30
f 127/141/27 131/136/27 129/138/27 125/142/27
f 132/135/29 128/143/29 126/144/29 130/137/29
f 133/131/26 134/132/26 136/133/26 135/134/26
f 135/134/31 136/133/31 140/135/31 139/136/31
f 139/136/28 140/135/28 138/137/28 137/138/28
f 137/138/30 138/137/30 134/139/30 133/140/30
f 135/141/27 139/136/27 137/138/27 133/142/27
f 140/135/29 136/143/29 134/144/29 138/137/29
f 141/131/26 142/132/26 144/133/26 143/134/26
f 143/134/27 144/133/27 148/135/27 147/136/27
f 147/136/28 148/135/28 146/137/28 145/138/28
f 145/138/29 146/137/29 142/139/29 141/140/29
f 143/141/30 147/136/30 145/138/30 141/142/30
f 148/135/31 144/143/31 142/144/31 146/137/31
o window.001
v -5.107451 5.251089 -4.613307
v -5.107451 5.562545 -4.613307
v -5.107451 5.251089 -6.702091
v -5.107451 5.562545 -6.702091
v -4.774975 5.251089 -4.613307
v -4.774975 5.562545 -4.613307
v -4.774975 5.251089 -6.702091
v -4.774975 5.562545 -6.702091
v -5.107452 1.293851 -4.613307
v -5.107452 1.605307 -4.613307
v -5.107452 1.293851 -6.702091
v -5.107452 1.605307 -6.702091
v -4.774975 1.293851 -4.613307
v -4.774975 1.605307 -4.613307
v -4.774975 1.293851 -6.702091
v -4.774975 1.605307 -6.702091
v -5.107452 1.605307 -4.805542
v -5.107452 1.605307 -4.613307
v -5.107452 5.251089 -4.805542
v -5.107452 5.251089 -4.613307
v -4.774975 1.605307 -4.805542
v -4.774975 1.605307 -4.613307
v -4.774975 5.251089 -4.805542
v -4.774975 5.251089 -4.613307
v -5.107452 1.605307 -6.702090
v -5.107452 1.605307 -6.509856
v -5.107452 5.251089 -6.702090
v -5.107452 5.251089 -6.509856
v -4.774975 1.605307 -6.702090
v -4.774975 1.605307 -6.509856
v -4.774975 5.251089 -6.702090
v -4.774975 5.251089 -6.509856
v -5.107452 1.605307 -5.774818
v -5.107452 1.605307 -5.582584
v -5.107452 5.251089 -5.774818
v -5.107452 5.251089 -5.582584
v -4.774975 1.605307 -5.774818
v -4.774975 1.605307 -5.582584
v -4.774975 5.251089 -5.774818
v -4.774975 5.251089 -5.582584
v -5.087646 3.289957 -4.801716
v -5.087646 3.601412 -4.801716
v -5.087646 3.289957 -6.515707
v -5.087646 3.601412 -6.515707
v -4.794781 3.289957 -4.801716
v -4.794781 3.601412 -4.801716
v -4.794781 3.289957 -6.515707
v -4.794781 3.601412 -6.515707
vn -1.0000 -0.0000 -0.0000
vn -0.0000 -0.0000 -1.0000
vn 1.0000 -0.0000 -0.0000
vn -0.0000 -0.0000 1.0000
vn -0.0000 -1.0000 -0.0000
vn -0.0000 1.0000 -0.0000
vt 0.375000 0.000000
vt 0.625000 0.000000
vt 0.625000 0.250000
vt 0.375000 0.250000
vt 0.625000 0.500000
vt 0.375000 0.500000
vt 0.625000 0.750000
vt 0.375000 0.750000
vt 0.625000 1.000000
vt 0.375000 1.000000
vt 0.125000 0.500000
vt 0.125000 0.750000
vt 0.875000 0.500000
vt 0.875000 0.750000
s 0
usemtl window
f 149/145/32 150/146/32 152/147/32 151/148/32
f 151/148/33 152/147/33 156/149/33 155/150/33
f 155/150/34 156/149/34 154/151/34 153/152/34
f 153/152/35 154/151/35 150/153/35 149/154/35
f 151/155/36 155/150/36 153/152/36 149/156/36
f 156/149/37 152/157/37 150/158/37 154/151/37
f 157/145/32 158/146/32 160/147/32 159/148/32
f 159/148/33 160/147/33 164/149/33 163/150/33
f 163/150/34 164/149/34 162/151/34 161/152/34
f 161/152/35 162/151/35 158/153/35 157/154/35
f 159/155/36 163/150/36 161/152/36 157/156/36
f 164/149/37 160/157/37 158/158/37 162/151/37
f 165/145/32 166/146/32 168/147/32 167/148/32
f 167/148/37 168/147/37 172/149/37 171/150/37
f 171/150/34 172/149/34 170/151/34 169/152/34
f 169/152/36 170/151/36 166/153/36 165/154/36
f 167/155/33 171/150/33 169/152/33 165/156/33
f 172/149/35 168/157/35 166/158/35 170/151/35
f 173/145/32 174/146/32 176/147/32 175/148/32
f 175/148/37 176/147/37 180/149/37 179/150/37
f 179/150/34 180/149/34 178/151/34 177/152/34
f 177/152/36 178/151/36 174/153/36 173/154/36
f 175/155/33 179/150/33 177/152/33 173/156/33
f 180/149/35 176/157/35 174/158/35 178/151/35
f 181/145/32 182/146/32 184/147/32 183/148/32
f 183/148/37 184/147/37 188/149/37 187/150/37
f 187/150/34 188/149/34 186/151/34 185/152/34
f 185/152/36 186/151/36 182/153/36 181/154/36
f 183/155/33 187/150/33 185/152/33 181/156/33
f 188/149/35 184/157/35 182/158/35 186/151/35
f 189/145/32 190/146/32 192/147/32 191/148/32
f 191/148/33 192/147/33 196/149/33 195/150/33
f 195/150/34 196/149/34 194/151/34 193/152/34
f 193/152/35 194/151/35 190/153/35 189/154/35
f 191/155/36 195/150/36 193/152/36 189/156/36
f 196/149/37 192/157/37 190/158/37 194/151/37
