# Blender 4.0.1
# www.blender.org
mtllib restov2nowin.mtl
o Cube
v -6.959177 -0.081125 10.000000
v -6.959177 0.081125 10.000000
v -6.959177 -0.081125 -10.000000
v -6.959177 0.081125 -10.000000
v 6.959177 -0.081125 10.000000
v 6.959177 0.081125 10.000000
v 6.959177 -0.081125 -10.000000
v 6.959177 0.081125 -10.000000
v 5.139663 -0.081125 -10.000000
v 5.139663 0.081125 -10.000000
v 5.139663 -0.081125 10.000000
v 5.139663 0.081125 10.000000
v -6.959177 -0.081125 -8.197609
v -6.959177 0.081125 -8.197609
v 6.959177 -0.081125 -8.197609
v 6.959177 0.081125 -8.197609
v 5.139663 -0.081125 -8.197609
v 5.139663 7.762547 -10.000000
v 6.959177 7.762547 -10.000000
v 6.959177 7.762547 -8.197609
v 5.139663 7.159699 -10.000000
v 6.959177 7.159699 -10.000000
v 6.959177 7.159699 -8.197609
v 5.667373 0.081125 -8.197609
v 5.139663 0.081125 -8.955904
v 4.611952 0.081125 -8.197609
v 5.139663 0.081125 -7.439315
v 5.139663 7.762547 -8.955904
v 5.667373 7.762547 -8.197609
v 5.139663 7.159699 -8.955904
v 5.667373 7.159699 -8.197609
v 5.139663 1.056890 -10.000000
v 6.959177 1.056890 -10.000000
v 6.959177 1.056890 -8.197609
v 5.667373 1.056890 -8.197609
v 5.139663 1.056890 -8.955904
v 6.959177 1.056890 -8.252901
v 6.959177 7.159699 -8.252901
v 5.667373 1.056890 -8.252901
v 5.667373 7.159699 -8.252901
v 5.185047 7.159699 -8.987487
v 5.712757 7.159699 -8.229193
v 5.712757 1.056890 -8.229193
v 5.185047 1.056890 -8.987487
v 5.194954 7.159699 -8.955904
v 5.194954 7.159699 -10.000000
v 5.194954 1.056890 -10.000000
v 5.194954 1.056890 -8.955904
v -6.958758 7.767796 9.999999
v -6.796508 7.767796 9.999999
v -6.958758 7.767796 -9.999999
v -6.796508 7.767796 -9.999999
v -6.958759 0.080608 9.999999
v -6.796508 0.080608 9.999999
v -6.958759 0.080608 -9.999999
v -6.796508 0.080608 -9.999999
v -6.958758 1.970900 -9.999999
v -6.796508 1.970900 -9.999999
v -6.958758 1.970900 9.999999
v -6.796508 1.970900 9.999999
v -6.699934 1.970900 -9.999999
v -6.699934 0.080608 -9.999999
v -6.699934 0.080608 9.999999
v -6.699934 1.970900 9.999999
v -6.958758 5.882436 -9.999999
v -6.796508 5.882436 9.999999
v -6.796508 5.882436 -9.999999
v -6.958758 5.882436 9.999999
v -6.958758 6.036794 -9.999999
v -6.796508 6.036794 9.999999
v -6.796508 6.036794 -9.999999
v -6.958758 6.036794 9.999999
v -6.958758 7.767796 -9.470745
v -6.796508 7.767796 -9.470745
v -6.958759 0.080608 -9.470745
v -6.796508 0.080608 -9.470745
v -6.796508 1.970900 -9.470745
v -6.958758 1.970900 -9.470745
v -6.699934 0.080608 -9.470745
v -6.699934 1.970900 -9.470745
v -6.958758 5.882436 -9.470745
v -6.796508 5.882436 -9.470745
v -6.958758 6.036794 -9.470745
v -6.796508 6.036794 -9.470745
v -6.958758 7.767796 -9.340370
v -6.796508 0.080608 -9.340370
v -6.796508 1.970900 -9.340370
v -6.958758 1.970900 -9.340370
v -6.699934 0.080608 -9.340370
v -6.699934 1.970900 -9.340370
v -6.958758 5.882436 -9.340370
v -6.796508 5.882436 -9.340370
v -6.958758 6.036794 -9.340370
v -6.796508 6.036794 -9.340370
v -6.796508 7.767796 -9.340370
v -6.958759 0.080608 -9.340370
v -6.958758 7.767796 -6.770694
v -6.796508 0.080608 -6.770694
v -6.796508 1.970900 -6.770694
v -6.958758 1.970900 -6.770694
v -6.699934 0.080608 -6.770694
v -6.699934 1.970900 -6.770694
v -6.958758 5.882436 -6.770694
v -6.796508 5.882436 -6.770694
v -6.958758 6.036794 -6.770694
v -6.796508 6.036794 -6.770694
v -6.796508 7.767796 -6.770694
v -6.958759 0.080608 -6.770694
v -6.958758 7.767796 -6.618728
v -6.796508 0.080608 -6.618728
v -6.796508 1.970900 -6.618728
v -6.958758 1.970900 -6.618728
v -6.699934 0.080608 -6.618728
v -6.699934 1.970900 -6.618728
v -6.958758 5.882436 -6.618728
v -6.796508 5.882436 -6.618728
v -6.958758 6.036794 -6.618728
v -6.796508 6.036794 -6.618728
v -6.796508 7.767796 -6.618727
v -6.958759 0.080608 -6.618727
v -6.958758 7.767796 -3.931028
v -6.796508 0.080608 -3.931028
v -6.796508 1.970900 -3.931028
v -6.958758 1.970900 -3.931028
v -6.699934 0.080608 -3.931028
v -6.699934 1.970900 -3.931028
v -6.958758 5.882436 -3.931028
v -6.796508 5.882436 -3.931028
v -6.958758 6.036794 -3.931028
v -6.796508 6.036794 -3.931028
v -6.796508 7.767796 -3.931027
v -6.958759 0.080608 -3.931027
v -6.796508 7.767796 -4.102544
v -6.958759 0.080608 -4.102544
v -6.958758 7.767796 -4.102545
v -6.796508 0.080608 -4.102545
v -6.796508 1.970900 -4.102545
v -6.958758 1.970900 -4.102545
v -6.699934 0.080608 -4.102545
v -6.699934 1.970900 -4.102545
v -6.958758 5.882436 -4.102545
v -6.796508 5.882436 -4.102545
v -6.958758 6.036794 -4.102545
v -6.796508 6.036794 -4.102545
v -6.699934 5.882436 -3.931028
v -6.699934 5.882436 9.999999
v -6.699934 6.036794 9.999999
v -6.699934 6.036794 -3.931028
v -6.699934 7.767796 -9.340370
v -6.699934 7.767796 -9.470745
v -6.699934 6.036794 -9.470745
v -6.699934 5.882436 -9.470745
v -6.699934 1.970900 -9.470745
v -6.699934 1.970900 -9.340370
v -6.699934 5.882436 -9.340370
v -6.699934 6.036794 -9.340370
v -6.699934 5.882436 -6.770694
v -6.699934 6.036794 -6.770694
v -6.699934 7.767796 -6.618727
v -6.699934 7.767796 -6.770694
v -6.699934 1.970900 -6.770694
v -6.699934 1.970900 -6.618728
v -6.699934 5.882436 -6.618728
v -6.699934 6.036794 -6.618728
v -6.699934 1.970900 -4.102545
v -6.699934 1.970900 -3.931028
v -6.699934 5.882436 -4.102545
v -6.699934 6.036794 -4.102545
v -6.699934 7.767796 -3.931027
v -6.699934 7.767796 -4.102544
v -6.959177 7.690639 9.999999
v -6.959177 7.852890 9.999999
v -6.959177 7.690639 -9.999999
v -6.959177 7.852890 -9.999999
v 6.959177 7.690639 9.999999
v 6.959177 7.852890 9.999999
v 6.959177 7.690639 -9.999999
v 6.959177 7.852890 -9.999999
v -4.524222 7.690639 -9.999999
v -4.524222 7.852890 -9.999999
v -4.524222 7.690639 9.999999
v -4.524222 7.852890 9.999999
v -2.453951 7.852890 -9.999999
v -2.453951 7.690639 9.999999
v -2.453951 7.690639 -9.999999
v -2.453951 7.852890 9.999999
v 4.571716 7.852890 -9.999999
v 4.571716 7.690639 9.999999
v 4.571716 7.690639 -9.999999
v 4.571716 7.852890 9.999999
v 2.523918 7.690639 -9.999999
v 2.523918 7.852890 9.999999
v 2.523918 7.852890 -9.999999
v 2.523918 7.690639 9.999999
v -2.453951 7.639568 -9.999999
v -4.524222 7.639568 -9.999999
v -4.524222 7.639568 9.999999
v -2.453951 7.639568 9.999999
v 2.523918 7.639568 9.999999
v 4.571716 7.639568 9.999999
v 4.571716 7.639568 -9.999999
v 2.523918 7.639568 -9.999999
v 6.796636 7.767796 9.999999
v 6.958887 7.767796 9.999999
v 6.796636 7.767796 -9.999999
v 6.958887 7.767796 -9.999999
v 6.796635 0.080608 9.999999
v 6.958886 0.080608 9.999999
v 6.796635 0.080608 -9.999999
v 6.958886 0.080608 -9.999999
v 6.796636 1.970900 -9.999999
v 6.958886 1.970900 -9.999999
v 6.796636 1.970900 9.999999
v 6.958886 1.970900 9.999999
v 6.700061 0.080608 9.999999
v 6.700061 0.080608 -9.999999
v 6.700061 1.970900 9.999999
v 6.700061 1.970900 -9.999999
v 7.222080 7.767796 -9.828173
v 7.222080 7.767796 -9.990423
v -7.222080 7.767796 -9.828172
v -7.222080 7.767796 -9.990423
v 7.222080 0.080608 -9.828172
v 7.222080 0.080608 -9.990423
v -7.222080 0.080608 -9.828171
v -7.222080 0.080608 -9.990422
v -7.222080 1.970900 -9.828172
v -7.222080 1.970900 -9.990422
v 7.222080 1.970900 -9.828173
v 7.222080 1.970900 -9.990423
v 7.222080 0.080608 -9.731598
v -7.222080 0.080608 -9.731597
v 7.222080 1.970900 -9.731598
v -7.222080 1.970900 -9.731597
vn -1.0000 -0.0000 -0.0000
vn -0.0000 -0.0000 -1.0000
vn 1.0000 -0.0000 -0.0000
vn -0.0000 -0.0000 1.0000
vn -0.0000 -1.0000 -0.0000
vn -0.0000 1.0000 -0.0000
vn -0.8208 -0.0000 0.5712
vn 0.5712 -0.0000 0.8208
vn -0.5712 -0.0000 -0.8208
vt 0.152240 0.144592
vt 0.233607 0.144592
vt 0.233607 0.151925
vt 0.152240 0.151925
vt 0.152240 0.222655
vt 0.233607 0.222655
vt 0.233607 0.233292
vt 0.152240 0.233292
vt 0.152240 0.240625
vt 0.233607 0.240625
vt 0.233607 0.314659
vt 0.152240 0.314659
vt 0.152240 0.325296
vt 0.233607 0.325296
vt 0.233607 0.396027
vt 0.152240 0.396027
vt 0.141603 0.240625
vt 0.141603 0.314659
vt 0.425091 0.018424
vt 0.425091 0.014176
vt 0.422955 0.013566
vt 0.422955 0.017813
vt 0.244244 0.233292
vt 0.314975 0.233292
vt 0.314975 0.240625
vt 0.247329 0.240625
vt 0.244244 0.237540
vt 0.070873 0.240625
vt 0.070873 0.314659
vt 0.070873 0.233292
vt 0.141603 0.233292
vt 0.412318 0.022974
vt 0.419870 0.022974
vt 0.419909 0.025666
vt 0.412357 0.025666
vt 0.152240 0.070558
vt 0.233607 0.070558
vt 0.412318 0.020898
vt 0.418101 0.019437
vt 0.421186 0.016352
vt 0.244244 0.243710
vt 0.314975 0.314659
vt 0.244244 0.314659
vt 0.241159 0.240625
vt 0.244244 0.240625
vt 0.244244 0.243710
vt 0.419870 0.020898
vt 0.451120 0.022852
vt 0.443568 0.022852
vt 0.454205 0.019767
vt 0.454205 0.015519
vt 0.459007 0.374460
vt 0.540374 0.374460
vt 0.540374 0.376614
vt 0.459007 0.376614
vt 0.459007 0.437973
vt 0.540374 0.437973
vt 0.540374 0.457981
vt 0.459007 0.457981
vt 0.459007 0.482672
vt 0.540374 0.482672
vt 0.540374 0.539348
vt 0.459007 0.539348
vt 0.459007 0.602393
vt 0.540374 0.602393
vt 0.540374 0.620715
vt 0.459007 0.620715
vt 0.438998 0.482672
vt 0.438998 0.539348
vt 0.616603 0.486090
vt 0.634925 0.486090
vt 0.634925 0.542766
vt 0.616603 0.542766
vt 0.540374 0.460134
vt 0.397596 0.482672
vt 0.397596 0.539348
vt 0.540374 0.559356
vt 0.459007 0.559356
vt 0.459007 0.396570
vt 0.540374 0.396570
vt 0.560382 0.482672
vt 0.560382 0.539348
vt 0.459007 0.394936
vt 0.540374 0.394936
vt 0.395962 0.482672
vt 0.395962 0.539348
vt 0.568683 0.486090
vt 0.610086 0.486090
vt 0.610086 0.542766
vt 0.568683 0.542766
vt 0.540374 0.600759
vt 0.459007 0.600759
vt 0.377640 0.482672
vt 0.377640 0.539348
vt 0.677964 0.594442
vt 0.677964 0.604896
vt 0.607644 0.457981
vt 0.616603 0.457981
vt 0.616603 0.460134
vt 0.607644 0.460134
vt 0.377640 0.457981
vt 0.395962 0.457981
vt 0.395962 0.460134
vt 0.377640 0.460134
vt 0.566242 0.457981
vt 0.566242 0.460134
vt 0.397596 0.457981
vt 0.397596 0.460134
vt 0.560382 0.460134
vt 0.560382 0.457981
vt 0.438998 0.457981
vt 0.438998 0.460134
vt 0.540374 0.460664
vt 0.540374 0.460664
vt 0.634925 0.457981
vt 0.634925 0.460134
vt 0.459007 0.460134
vt 0.459007 0.373930
vt 0.540374 0.373930
vt 0.459007 0.363476
vt 0.540374 0.363476
vt 0.540374 0.471119
vt 0.540374 0.471119
vt 0.677964 0.593911
vt 0.696286 0.593911
vt 0.395962 0.460664
vt 0.377640 0.460664
vt 0.677964 0.605514
vt 0.677964 0.615751
vt 0.397596 0.460664
vt 0.560382 0.460664
vt 0.438998 0.460664
vt 0.673156 0.675566
vt 0.673156 0.618890
vt 0.676330 0.618890
vt 0.676330 0.675566
vt 0.459007 0.460664
vt 0.540374 0.471737
vt 0.540374 0.471737
vt 0.459007 0.362857
vt 0.540374 0.362857
vt 0.634927 0.604896
vt 0.676330 0.604896
vt 0.676330 0.605514
vt 0.397596 0.471737
vt 0.438998 0.471737
vt 0.634927 0.605514
vt 0.397596 0.471119
vt 0.395962 0.471119
vt 0.560382 0.471119
vt 0.395962 0.471737
vt 0.459007 0.471119
vt 0.438998 0.471119
vt 0.459007 0.352621
vt 0.540374 0.352621
vt 0.540374 0.481974
vt 0.676330 0.593911
vt 0.377640 0.471119
vt 0.377640 0.471737
vt 0.696286 0.605514
vt 0.560382 0.471737
vt 0.560382 0.460134
vt 0.459007 0.471737
vt 0.459007 0.295246
vt 0.540374 0.295246
vt 0.540374 0.351923
vt 0.459007 0.351923
vt 0.676330 0.594441
vt 0.377640 0.481974
vt 0.395962 0.481974
vt 0.676330 0.615751
vt 0.397596 0.481974
vt 0.560382 0.481974
vt 0.560382 0.481974
vt 0.438998 0.481974
vt 0.634927 0.594441
vt 0.459007 0.481974
vt 0.696286 0.604896
vt 0.703399 0.616449
vt 0.705032 0.616449
vt 0.705032 0.673125
vt 0.703399 0.673125
vt 0.634927 0.593911
vt 0.696286 0.594441
vt 0.680602 0.582051
vt 0.682236 0.582051
vt 0.682236 0.592506
vt 0.680602 0.592506
vt 0.677964 0.616449
vt 0.676330 0.616449
vt 0.634927 0.615751
vt 0.634927 0.616449
vt 0.679611 0.610746
vt 0.697933 0.610746
vt 0.697933 0.611444
vt 0.679611 0.611444
vt 0.676330 0.581100
vt 0.677964 0.581100
vt 0.677964 0.591337
vt 0.676330 0.591337
vt 0.679809 0.616449
vt 0.679809 0.673125
vt 0.698902 0.618096
vt 0.680580 0.618096
vt 0.680386 0.616449
vt 0.698708 0.616449
vt 0.696286 0.615751
vt 0.396027 0.762696
vt 0.396027 0.844063
vt 0.314659 0.844063
vt 0.314659 0.762696
vt 0.247249 0.762696
vt 0.247249 0.844063
vt 0.233292 0.844063
vt 0.233292 0.762696
vt 0.151925 0.844063
vt 0.151925 0.762696
vt 0.084793 0.762696
vt 0.084793 0.844063
vt 0.070558 0.844063
vt 0.070558 0.762696
vt 0.233292 0.748738
vt 0.151925 0.748738
vt 0.233292 0.911195
vt 0.233292 0.925430
vt 0.151925 0.925430
vt 0.151925 0.911195
vt 0.233292 0.899092
vt 0.151925 0.899092
vt 0.233292 0.681328
vt 0.233292 0.695563
vt 0.151925 0.695563
vt 0.151925 0.681328
vt 0.096895 0.762696
vt 0.096896 0.844063
vt 0.300425 0.844063
vt 0.300425 0.762696
vt 0.125996 0.762696
vt 0.125996 0.844063
vt 0.233292 0.869991
vt 0.151925 0.869991
vt 0.233292 0.707666
vt 0.151925 0.707666
vt 0.288322 0.844063
vt 0.288322 0.762696
vt 0.233292 0.858020
vt 0.151925 0.858020
vt 0.137968 0.844063
vt 0.137968 0.762696
vt 0.259221 0.762696
vt 0.259221 0.844063
vt 0.233292 0.736767
vt 0.151925 0.736767
vt 0.214727 0.698325
vt 0.214727 0.704905
vt 0.170490 0.704905
vt 0.170490 0.698325
vt 0.213906 0.739619
vt 0.213906 0.745886
vt 0.171312 0.745886
vt 0.171312 0.739619
vt 0.766799 0.577390
vt 0.848167 0.577390
vt 0.848167 0.658757
vt 0.766799 0.658757
vt 0.766799 0.720116
vt 0.848167 0.720116
vt 0.848167 0.740124
vt 0.766799 0.740124
vt 0.848167 0.821491
vt 0.766799 0.821491
vt 0.766799 0.841500
vt 0.848167 0.841500
vt 0.848167 0.902858
vt 0.766799 0.902858
vt 0.868175 0.740124
vt 0.929534 0.740124
vt 0.929534 0.821491
vt 0.868175 0.821491
vt 0.681526 0.740124
vt 0.742885 0.740124
vt 0.742885 0.821491
vt 0.681526 0.821491
vt 0.746791 0.740124
vt 0.746791 0.821491
vt 0.848167 0.396027
vt 0.766800 0.396027
vt 0.766800 0.314659
vt 0.848167 0.314659
vt 0.848167 0.253300
vt 0.766800 0.253300
vt 0.766800 0.233292
vt 0.848167 0.233292
vt 0.766800 0.151925
vt 0.848167 0.151925
vt 0.848167 0.131917
vt 0.766800 0.131917
vt 0.766800 0.070558
vt 0.848167 0.070558
vt 0.868175 0.151925
vt 0.868175 0.233292
vt 0.746791 0.233292
vt 0.685432 0.233292
vt 0.685432 0.151925
vt 0.746791 0.151925
vt 0.933196 0.233292
vt 0.871837 0.233292
vt 0.871837 0.151925
vt 0.933196 0.151925
s 0
usemtl resto
f 13/1/1 14/2/1 4/3/1 3/4/1
f 9/5/2 10/6/2 8/7/2 7/8/2
f 15/9/3 16/10/3 6/11/3 5/12/3
f 11/13/4 12/14/4 2/15/4 1/16/4
f 17/17/5 15/9/5 5/12/5 11/18/5
f 30/19/5 21/20/5 46/21/5 45/22/5
f 10/23/6 4/24/6 14/25/6 26/26/6 25/27/6
f 13/28/5 17/17/5 11/18/5 1/29/5
f 5/12/4 6/11/4 12/14/4 11/13/4
f 3/4/2 4/3/2 10/6/2 9/5/2
f 3/30/5 9/31/5 17/17/5 13/28/5
f 23/32/5 31/33/5 40/34/5 38/35/5
f 9/31/5 7/8/5 15/9/5 17/17/5
f 7/8/3 8/7/3 16/10/3 15/9/3
f 1/36/1 2/37/1 14/2/1 13/1/1
f 31/33/4 23/32/4 20/38/4 29/39/4
f 22/7/2 21/6/2 18/6/2 19/7/2
f 21/20/1 30/19/1 28/40/1 18/21/1
f 23/10/3 22/7/3 19/7/3 20/10/3
f 34/10/3 33/7/3 22/7/3 23/10/3
f 27/41/6 26/26/6 14/25/6 2/42/6 12/43/6
f 33/7/2 32/6/2 21/6/2 22/7/2
f 19/7/6 18/23/6 28/27/6 29/44/6 20/10/6
f 24/44/6 25/45/6 26/26/6 27/41/6
f 31/33/7 29/39/7 28/40/7 30/19/7
f 30/19/8 36/22/8 44/22/8 41/22/8
f 16/10/6 24/44/6 27/46/6 12/43/6 6/11/6
f 24/47/7 35/47/7 36/22/7 25/22/7
f 8/7/2 10/6/2 32/6/2 33/7/2
f 16/10/3 8/7/3 33/7/3 34/10/3
f 24/47/4 16/38/4 34/38/4 35/47/4
f 10/21/1 25/22/1 36/22/1 32/21/1
f 39/48/4 37/49/4 38/49/4 40/48/4
f 34/10/1 23/10/1 38/10/1 37/10/1
f 31/33/3 35/47/3 39/47/3 40/34/3
f 35/47/6 34/38/6 37/38/6 39/47/6
f 43/48/7 42/48/7 41/50/7 44/50/7
f 36/22/6 35/47/6 43/47/6 44/22/6
f 35/47/9 31/33/9 42/47/9 43/47/9
f 31/33/5 30/19/5 41/22/5 42/47/5
f 47/51/1 48/50/1 45/50/1 46/51/1
f 36/22/2 30/19/2 45/22/2 48/22/2
f 21/6/4 32/6/4 47/6/4 46/6/4
f 32/21/6 36/22/6 48/22/6 47/21/6
f 73/52/6 74/53/6 52/54/6 51/55/6
f 57/56/2 58/57/2 56/58/2 55/59/2
f 132/60/5 122/61/5 54/62/5 53/63/5
f 72/64/4 70/65/4 50/66/4 49/67/4
f 124/68/1 132/60/1 53/63/1 59/69/1
f 130/70/3 131/71/3 50/72/3 70/73/3
f 76/74/5 56/58/5 62/58/5 79/74/5
f 127/75/1 124/68/1 59/69/1 68/76/1
f 53/63/4 54/62/4 60/77/4 59/78/4
f 65/79/2 67/80/2 58/57/2 57/56/2
f 125/61/3 126/81/3 64/82/3 63/62/3
f 60/77/4 54/62/4 63/62/4 64/77/4
f 56/58/2 58/57/2 61/57/2 62/58/2
f 123/81/6 60/82/6 64/82/6 126/81/6
f 69/83/2 71/84/2 67/80/2 65/79/2
f 129/85/1 127/75/1 68/76/1 72/86/1
f 123/87/3 128/88/3 66/89/3 60/90/3
f 59/78/4 60/77/4 66/91/4 68/92/4
f 121/93/1 129/85/1 72/86/1 49/94/1
f 51/55/2 52/54/2 71/84/2 69/83/2
f 94/95/6 106/96/6 158/96/6 156/95/6
f 68/92/4 66/91/4 70/65/4 72/64/4
f 67/97/3 71/98/3 84/99/3 82/100/3
f 51/101/1 69/102/1 83/103/1 73/104/1
f 58/105/3 67/97/3 82/100/3 77/106/3
f 69/102/1 65/107/1 81/108/1 83/103/1
f 58/105/6 77/106/6 80/109/6 61/110/6
f 62/58/3 61/110/3 80/109/3 79/74/3
f 65/107/1 57/111/1 78/112/1 81/108/1
f 86/113/5 76/74/5 79/74/5 89/114/5
f 71/98/3 52/115/3 74/116/3 84/99/3
f 57/111/1 55/59/1 75/117/1 78/112/1
f 55/59/5 56/58/5 76/74/5 75/117/5
f 85/118/6 95/119/6 74/53/6 73/52/6
f 97/120/6 107/121/6 95/119/6 85/118/6
f 98/122/5 86/113/5 89/114/5 101/123/5
f 84/124/2 74/125/2 150/125/2 151/124/2
f 73/104/1 83/103/1 93/126/1 85/127/1
f 118/128/6 144/129/6 168/129/6 164/128/6
f 83/103/1 81/108/1 91/130/1 93/126/1
f 77/106/6 87/131/6 90/131/6 80/109/6
f 79/74/3 80/109/3 90/131/3 89/114/3
f 81/108/1 78/112/1 88/132/1 91/130/1
f 66/133/5 128/134/5 145/135/5 146/136/5
f 78/112/1 75/117/1 96/137/1 88/132/1
f 75/117/5 76/74/5 86/113/5 96/137/5
f 110/138/5 98/122/5 101/123/5 113/139/5
f 109/140/6 119/141/6 107/121/6 97/120/6
f 99/142/2 104/143/2 157/143/2 161/142/2
f 116/144/4 115/145/4 112/146/4 111/147/4
f 93/126/1 91/130/1 103/148/1 105/149/1
f 87/131/6 99/150/6 102/150/6 90/131/6
f 89/114/3 90/131/3 102/150/3 101/123/3
f 119/141/4 109/140/4 117/151/4 118/128/4
f 88/132/1 96/137/1 108/152/1 100/153/1
f 96/137/5 86/113/5 98/122/5 108/152/5
f 135/154/6 133/155/6 119/141/6 109/140/6
f 136/156/5 110/138/5 113/139/5 139/156/5
f 82/157/2 84/124/2 151/124/2 152/157/2
f 97/158/1 105/149/1 117/151/1 109/159/1
f 119/160/4 118/128/4 164/128/4 159/160/4
f 105/149/1 103/148/1 115/145/1 117/151/1
f 99/150/6 111/161/6 114/161/6 102/150/6
f 101/123/3 102/150/3 114/161/3 113/139/3
f 103/148/1 100/153/1 112/146/1 115/145/1
f 87/131/5 77/106/5 153/162/5 154/131/5
f 100/153/1 108/152/1 120/163/1 112/146/1
f 108/152/5 98/122/5 110/138/5 120/163/5
f 54/62/5 122/61/5 125/61/5 63/62/5
f 49/164/6 50/165/6 131/166/6 121/167/6
f 104/143/5 92/168/5 155/168/5 157/143/5
f 135/169/1 143/170/1 129/85/1 121/93/1
f 142/171/5 116/144/5 163/144/5 167/171/5
f 143/170/1 141/172/1 127/75/1 129/85/1
f 137/173/6 123/81/6 126/81/6 140/174/6
f 139/156/3 140/174/3 126/81/3 125/61/3
f 141/172/1 138/175/1 124/68/1 127/75/1
f 92/168/4 87/176/4 154/176/4 155/168/4
f 138/175/1 134/177/1 132/60/1 124/68/1
f 134/177/5 136/156/5 122/61/5 132/60/5
f 120/163/5 110/138/5 136/156/5 134/177/5
f 112/146/1 120/163/1 134/177/1 138/175/1
f 113/139/3 114/161/3 140/174/3 139/156/3
f 111/161/6 137/173/6 140/174/6 114/161/6
f 117/151/1 115/145/1 141/172/1 143/170/1
f 106/96/2 107/178/2 160/178/2 158/96/2
f 122/61/5 136/156/5 139/156/5 125/61/5
f 121/167/6 131/166/6 133/155/6 135/154/6
f 145/179/3 148/180/3 147/181/3 146/182/3
f 152/157/3 151/124/3 156/95/3 155/168/3
f 153/183/3 152/157/3 155/168/3 154/176/3
f 151/124/3 150/125/3 149/184/3 156/95/3
f 155/185/3 156/186/3 158/187/3 157/188/3
f 157/143/3 158/96/3 164/128/3 163/144/3
f 161/142/3 157/143/3 163/144/3 162/147/3
f 158/96/3 160/178/3 159/160/3 164/128/3
f 167/171/3 168/129/3 148/189/3 145/190/3
f 165/191/3 167/171/3 145/190/3 166/192/3
f 168/193/3 170/194/3 169/195/3 148/196/3
f 163/197/3 164/198/3 168/199/3 167/200/3
f 130/201/6 70/202/6 147/202/6 148/201/6
f 137/191/2 142/171/2 167/171/2 165/191/2
f 131/203/4 130/204/4 148/205/4 169/206/4
f 107/121/6 119/141/6 159/141/6 160/121/6
f 116/144/4 111/147/4 162/147/4 163/144/4
f 77/183/2 82/157/2 152/157/2 153/183/2
f 111/161/5 99/150/5 161/150/5 162/161/5
f 70/65/4 66/91/4 146/91/4 147/65/4
f 95/184/4 94/95/4 156/95/4 149/184/4
f 144/129/2 133/207/2 170/207/2 168/129/2
f 128/190/4 123/192/4 166/192/4 145/190/4
f 74/53/6 95/119/6 149/119/6 150/53/6
f 133/155/6 131/166/6 169/166/6 170/155/6
f 123/81/5 137/173/5 165/173/5 166/81/5
f 171/208/1 172/209/1 174/210/1 173/211/1
f 189/212/2 187/213/2 178/214/2 177/215/2
f 177/215/3 178/214/3 176/216/3 175/217/3
f 181/218/4 182/219/4 172/220/4 171/221/4
f 189/222/5 177/215/5 175/217/5 188/223/5
f 180/224/6 174/225/6 172/226/6 182/227/6
f 183/228/6 180/224/6 182/227/6 186/229/6
f 173/230/5 179/231/5 181/232/5 171/233/5
f 184/234/4 186/235/4 182/219/4 181/218/4
f 173/211/2 174/210/2 180/236/2 179/237/2
f 194/238/4 192/239/4 186/235/4 184/234/4
f 193/240/6 183/228/6 186/229/6 192/241/6
f 185/242/3 184/243/3 198/243/3 195/242/3
f 179/237/2 180/236/2 183/244/2 185/245/2
f 178/214/6 187/246/6 190/247/6 176/216/6
f 175/217/4 176/216/4 190/248/4 188/249/4
f 181/232/1 179/231/1 196/231/1 197/232/1
f 191/250/2 193/251/2 187/213/2 189/212/2
f 185/245/2 183/244/2 193/251/2 191/250/2
f 185/242/5 191/252/5 194/253/5 184/243/5
f 187/246/6 193/240/6 192/241/6 190/247/6
f 188/249/4 190/248/4 192/239/4 194/238/4
f 196/254/5 195/255/5 198/256/5 197/257/5
f 202/258/5 201/259/5 200/260/5 199/261/5
f 188/249/4 194/238/4 199/238/4 200/249/4
f 191/250/2 189/212/2 201/212/2 202/250/2
f 189/222/3 188/223/3 200/223/3 201/222/3
f 179/237/2 185/245/2 195/245/2 196/237/2
f 184/234/4 181/218/4 197/218/4 198/234/4
f 194/253/1 191/252/1 202/252/1 199/253/1
f 203/262/6 204/263/6 206/264/6 205/265/6
f 211/266/2 212/267/2 210/268/2 209/269/2
f 209/269/5 210/268/5 208/270/5 207/271/5
f 213/272/4 214/273/4 204/274/4 203/275/4
f 211/266/2 209/269/2 216/269/2 218/266/2
f 212/276/3 206/277/3 204/278/3 214/279/3
f 210/268/3 212/276/3 214/279/3 208/270/3
f 205/280/1 211/281/1 213/282/1 203/283/1
f 207/271/4 208/270/4 214/273/4 213/272/4
f 205/265/2 206/264/2 212/267/2 211/266/2
f 218/284/1 216/269/1 215/271/1 217/285/1
f 207/271/4 213/272/4 217/272/4 215/271/4
f 213/285/6 211/284/6 218/284/6 217/285/6
f 209/269/5 207/271/5 215/271/5 216/269/5
f 219/286/6 220/287/6 222/288/6 221/289/6
f 227/290/1 228/291/1 226/292/1 225/293/1
f 225/293/5 226/292/5 224/294/5 223/295/5
f 229/296/3 230/297/3 220/298/3 219/299/3
f 229/300/6 227/301/6 234/301/6 233/300/6
f 228/302/2 222/303/2 220/304/2 230/305/2
f 226/292/2 228/302/2 230/305/2 224/294/2
f 221/306/4 227/307/4 229/308/4 219/309/4
f 223/295/3 224/294/3 230/297/3 229/296/3
f 221/289/1 222/288/1 228/291/1 227/290/1
f 234/301/4 232/293/4 231/295/4 233/300/4
f 225/293/5 223/295/5 231/295/5 232/293/5
f 227/290/1 225/293/1 232/293/1 234/290/1
f 223/295/3 229/296/3 233/296/3 231/295/3
