# Blender 4.0.1
# www.blender.org
mtllib restov2win.mtl
o Cube
v 5.194954 7.159699 -10.000000
v -6.958758 7.767796 -9.340370
v -6.796508 1.970900 -9.340370
v -6.958758 1.970900 -9.340370
v -6.958758 5.882436 -9.340370
v -6.796508 5.882436 -9.340370
v -6.958758 6.036794 -9.340370
v -6.796508 6.036794 -9.340370
v -6.796508 7.767796 -9.340370
v -6.958758 7.767796 -6.770694
v -6.796508 1.970900 -6.770694
v -6.958758 1.970900 -6.770694
v -6.958758 5.882436 -6.770694
v -6.796508 5.882436 -6.770694
v -6.958758 6.036794 -6.770694
v -6.796508 6.036794 -6.770694
v -6.796508 7.767796 -6.770694
v -6.958758 7.767796 -6.618728
v -6.796508 1.970900 -6.618728
v -6.958758 1.970900 -6.618728
v -6.958758 5.882436 -6.618728
v -6.796508 5.882436 -6.618728
v -6.958758 6.036794 -6.618728
v -6.796508 6.036794 -6.618728
v -6.796508 7.767796 -6.618727
v -6.796508 7.767796 -4.102544
v -6.958758 7.767796 -4.102545
v -6.796508 1.970900 -4.102545
v -6.958758 1.970900 -4.102545
v -6.958758 5.882436 -4.102545
v -6.796508 5.882436 -4.102545
v -6.958758 6.036794 -4.102545
v -6.796508 6.036794 -4.102545
v -6.699934 6.036794 -9.340370
v 6.958886 0.080608 -9.999999
vn -1.0000 -0.0000 -0.0000
vn 1.0000 -0.0000 -0.0000
vn -0.0000 -0.0000 1.0000
vn -0.0000 -1.0000 -0.0000
vn -0.0000 1.0000 -0.0000
vt 0.158470 0.467109
vt 0.156368 0.017623
vt 0.162500 0.017607
vt 0.162497 0.394573
vt 0.036379 0.017607
vt 0.036379 0.981958
vt 0.030476 0.898041
vt 0.031950 0.101979
vt 0.017607 0.982393
vt 0.017607 0.018042
vt 0.023510 0.101959
vt 0.022036 0.898021
vt 0.181650 0.017611
vt 0.181288 0.467394
vt 0.176112 0.394563
vt 0.176233 0.017607
vt 0.128478 0.017917
vt 0.128478 0.477607
vt 0.122857 0.400778
vt 0.124136 0.094427
vt 0.064269 0.979840
vt 0.064269 0.018040
vt 0.070057 0.098639
vt 0.068608 0.898787
vt 0.083331 0.017607
vt 0.083331 0.979407
vt 0.077543 0.898808
vt 0.078992 0.098660
vt 0.110732 0.477298
vt 0.110732 0.017607
vt 0.116353 0.094437
vt 0.115074 0.400788
s 0
usemtl resto
f 2/1/1 7/2/1 15/3/1 10/4/1
f 3/5/2 6/6/2 14/7/2 11/8/2
f 5/9/1 4/10/1 12/11/1 13/12/1
f 8/13/2 9/14/2 17/15/2 16/16/2
f 24/17/2 25/18/2 26/19/2 33/20/2
f 21/21/1 20/22/1 29/23/1 30/24/1
f 19/25/2 22/26/2 31/27/2 28/28/2
f 18/29/1 23/30/1 32/31/1 27/32/1
f 26/19/3 27/32/3 32/31/3 33/20/3
f 29/23/3 28/28/3 31/27/3 30/24/3
f 28/28/4 29/23/4 20/22/4 19/25/4
f 30/24/5 31/27/5 22/26/5 21/21/5
f 26/19/5 25/18/5 18/29/5 27/32/5
f 32/31/4 23/30/4 24/17/4 33/20/4
f 15/3/3 16/16/3 17/15/3 10/4/3
f 14/7/3 13/12/3 12/11/3 11/8/3
f 13/12/5 14/7/5 6/6/5 5/9/5
f 17/15/5 9/14/5 2/1/5 10/4/5
f 11/8/4 12/11/4 4/10/4 3/5/4
l 34 8
